<?xml version='1.0' encoding='utf-8'?>
<svg xmlns="http://www.w3.org/2000/svg" width="100%" height="100%" viewBox="0 0 3000 3000" version="1.1" style="fill-rule:evenodd;clip-rule:evenodd;stroke-linecap:round;stroke-linejoin:round;stroke-miterlimit:1.5;"> <g transform="matrix(1,0,0,1,-3173,0)"> <g id="phone" transform="matrix(1,0,0,1,-0.861594,0)"> <rect x="3173.86" y="0" width="3000" height="3000" style="fill:none;"/> <g> <g transform="matrix(1,0,0,1.18368,-78.6164,-114.171)"> <path d="M5369.42,339.144C5369.42,293.612 5325.73,256.702 5271.84,256.702L4222.79,256.702C4168.9,256.702 4125.21,293.612 4125.21,339.144L4125.21,2388.23C4125.21,2433.76 4168.9,2470.67 4222.79,2470.67L5271.84,2470.67C5325.73,2470.67 5369.42,2433.76 5369.42,2388.23L5369.42,339.144Z" style="fill:none;stroke:rgb(13,202,242);stroke-width:18.25px;"/> <path d="M5369.42,339.144C5369.42,293.612 5325.73,256.702 5271.84,256.702L4222.79,256.702C4168.9,256.702 4125.21,293.612 4125.21,339.144L4125.21,2388.23C4125.21,2433.76 4168.9,2470.67 4222.79,2470.67L5271.84,2470.67C5325.73,2470.67 5369.42,2433.76 5369.42,2388.23L5369.42,339.144Z"/> </g> <g transform="matrix(0.947049,0,0,1.12992,172.76,-67.243)"> <path d="M5369.42,343.067C5369.42,320.161 5358.57,298.194 5339.24,281.997C5319.92,265.801 5293.71,256.702 5266.38,256.702L4228.25,256.702C4200.92,256.702 4174.71,265.801 4155.39,281.997C4136.06,298.194 4125.21,320.161 4125.21,343.067L4125.21,2384.31C4125.21,2407.21 4136.06,2429.18 4155.39,2445.38C4174.71,2461.57 4200.92,2470.67 4228.25,2470.67L5266.38,2470.67C5293.71,2470.67 5319.92,2461.57 5339.24,2445.38C5358.57,2429.18 5369.42,2407.21 5369.42,2384.31L5369.42,343.067Z" style="fill:rgb(223,223,223);"/> </g> <g transform="matrix(1,0,0,1,-59.0009,-67.0198)"> <path d="M4515.83,281.23L4542.06,307.461L4918.04,307.461L4949.89,275.609L4515.83,281.23Z"/> </g> <g transform="matrix(1,0,0,0.576389,-4.3009,113.039)"> <rect x="5291.38" y="425.056" width="14.052" height="224.837"/> </g> <g transform="matrix(1,0,0,1.15893,-4.3009,45.295)"> <path d="M5305.43,425.056L5291.38,425.056L5291.38,649.893L5305.43,649.893L5305.43,549.974L5300.83,538.592L5305.43,527.064L5305.43,425.056Z"/> </g> <g transform="matrix(1,0,0,1,8.73131,0)"> <path d="M4847.27,219.241C4847.27,217.179 4846.45,215.201 4844.99,213.742C4843.53,212.284 4841.56,211.465 4839.49,211.465C4791.73,211.465 4538.53,211.465 4490.77,211.465C4488.7,211.465 4486.73,212.284 4485.27,213.742C4483.81,215.201 4482.99,217.179 4482.99,219.241C4482.99,219.241 4482.99,219.242 4482.99,219.242C4482.99,221.305 4483.81,223.283 4485.27,224.741C4486.73,226.199 4488.7,227.018 4490.77,227.018C4538.53,227.018 4791.73,227.018 4839.49,227.018C4841.56,227.018 4843.53,226.199 4844.99,224.741C4846.45,223.283 4847.27,221.305 4847.27,219.242C4847.27,219.242 4847.27,219.241 4847.27,219.241Z" style="fill:rgb(80,80,80);"/> </g> </g> </g> </g> </svg>