<?xml version="1.0" encoding="UTF-8"?>
<svg viewBox="0 0 620 480" xmlns="http://www.w3.org/2000/svg">
 <defs>
  <filter id="t">
   <feGaussianBlur stdDeviation=".22779"/>
  </filter>
  <filter id="u">
   <feGaussianBlur stdDeviation=".34759"/>
  </filter>
  <filter id="v">
   <feGaussianBlur stdDeviation=".39037"/>
  </filter>
  <filter id="aa">
   <feGaussianBlur stdDeviation=".4956"/>
  </filter>
  <filter id="ac">
   <feGaussianBlur stdDeviation=".25244"/>
  </filter>
  <filter id="ae">
   <feGaussianBlur stdDeviation=".25999"/>
  </filter>
  <filter id="af">
   <feGaussianBlur stdDeviation=".22954"/>
  </filter>
  <filter id="ah">
   <feGaussianBlur stdDeviation=".26582"/>
  </filter>
  <filter id="aj">
   <feGaussianBlur stdDeviation=".3032"/>
  </filter>
  <filter id="an">
   <feGaussianBlur stdDeviation=".27683"/>
  </filter>
  <filter id="ao">
   <feGaussianBlur stdDeviation=".27908"/>
  </filter>
  <filter id="ak">
   <feGaussianBlur stdDeviation=".32626"/>
  </filter>
  <filter id="al">
   <feGaussianBlur stdDeviation=".30636"/>
  </filter>
  <filter id="a"/>
  <filter id="s" x="-.07902" y="-.12228" width="1.158" height="1.2446">
   <feGaussianBlur stdDeviation=".32917"/>
  </filter>
  <filter id="z" x="-.10997" y="-.08518" width="1.2199" height="1.1704">
   <feGaussianBlur stdDeviation=".35034"/>
  </filter>
  <filter id="ab" x="-.06012" y="-.23808" width="1.1202" height="1.4762">
   <feGaussianBlur stdDeviation=".21186"/>
  </filter>
  <filter id="am" x="-.05359" y="-.10966" width="1.1072" height="1.2193">
   <feGaussianBlur stdDeviation=".30657"/>
  </filter>
  <filter id="y" x="-.14091" y="-.20798" width="1.2818" height="1.416"/>
  <filter id="w" x="-.0485" y="-.13968" width="1.097" height="1.2794"/>
  <filter id="x" x="-.10068" y="-.1485" width="1.2014" height="1.297"/>
  <filter id="ad" x="-.085" y="-.204" width="1.17" height="1.408"/>
  <filter id="ag" x="-.12116" y="-.02993" width="1.2423" height="1.0599"/>
  <filter id="ai" x="-.12855" y="-.05" width="1.2571" height="1.1"/>
  <linearGradient id="r" x1="88.587" x2="79.965" y1="-36.351" y2="-48.165" gradientUnits="userSpaceOnUse">
   <stop stop-color="#cba983" offset="0"/>
   <stop stop-color="#fff" stop-opacity=".56637" offset="1"/>
  </linearGradient>
  <linearGradient id="q" x1="102.84" x2="83.684" y1="-32.564" y2="-57.898" gradientUnits="userSpaceOnUse">
   <stop stop-color="#ecc987" offset="0"/>
   <stop stop-color="#fff" stop-opacity=".85841" offset="1"/>
  </linearGradient>
  <linearGradient id="p" x1="73.626" x2="71.503" y1="-19.075" y2="-27.449" gradientUnits="userSpaceOnUse">
   <stop stop-color="#b6935b" offset="0"/>
   <stop stop-color="#fff" stop-opacity=".71681" offset="1"/>
  </linearGradient>
  <linearGradient id="o" x1="110.51" x2="104.46" y1="438.04" y2="370.58" gradientUnits="userSpaceOnUse">
   <stop stop-color="#eed199" offset="0"/>
   <stop stop-color="#fff" stop-opacity=".82301" offset="1"/>
  </linearGradient>
  <linearGradient id="n" x1="78.572" x2="85.142" y1="-12.32" y2="-7.5124" gradientUnits="userSpaceOnUse">
   <stop stop-color="#735229" offset="0"/>
   <stop stop-color="#fff" stop-opacity=".30973" offset="1"/>
  </linearGradient>
  <linearGradient id="m" x1="263.28" x2="530.07" gradientUnits="userSpaceOnUse">
   <stop stop-color="#d6be91" offset="0"/>
   <stop stop-color="#d6be91" stop-opacity="0" offset="1"/>
  </linearGradient>
  <linearGradient id="l" x1="273.63" x2="289.1" y1="133.45" y2="128.64" gradientUnits="userSpaceOnUse">
   <stop stop-color="#bca176" offset="0"/>
   <stop stop-color="#bca176" stop-opacity="0" offset="1"/>
  </linearGradient>
  <linearGradient id="k" x1="125.89" x2="147.88" y1="-30.262" y2="-64.947" gradientUnits="userSpaceOnUse">
   <stop stop-color="#bc9d71" offset="0"/>
   <stop stop-color="#bc9d71" stop-opacity="0" offset="1"/>
  </linearGradient>
  <linearGradient id="j" x1="98.497" x2="94.636" y1="-19.148" y2="-29.025" gradientUnits="userSpaceOnUse">
   <stop stop-color="#ddc08e" offset="0"/>
   <stop stop-color="#f0ff8e" stop-opacity=".59292" offset="1"/>
  </linearGradient>
  <linearGradient id="i" x1="108.02" x2="147.25" gradientUnits="userSpaceOnUse">
   <stop stop-color="#efd08f" offset="0"/>
   <stop stop-color="#f9e087" offset="1"/>
  </linearGradient>
  <linearGradient id="h" x1="127.64" x2="147.69" y1="-30.281" y2="-52.333" gradientUnits="userSpaceOnUse">
   <stop offset="0"/>
   <stop stop-opacity="0" offset="1"/>
  </linearGradient>
  <linearGradient id="g" x1="201.25" x2="246.14" gradientUnits="userSpaceOnUse">
   <stop stop-color="#d3b27f" offset="0"/>
   <stop stop-color="#d3b27f" stop-opacity="0" offset="1"/>
  </linearGradient>
  <linearGradient id="f" x1="142.99" x2="145.07" y1="-36.976" y2="-42.648" gradientUnits="userSpaceOnUse">
   <stop stop-color="#f8edb7" offset="0"/>
   <stop stop-color="#f8edb7" stop-opacity="0" offset="1"/>
  </linearGradient>
  <linearGradient id="e" x1="129.12" x2="136.07" gradientUnits="userSpaceOnUse">
   <stop stop-color="#614d35" offset="0"/>
   <stop stop-color="#614d35" stop-opacity="0" offset="1"/>
  </linearGradient>
  <linearGradient id="d" x1="111.75" x2="121.75" gradientUnits="userSpaceOnUse">
   <stop stop-color="#e9c284" offset="0"/>
   <stop stop-color="#e9c284" stop-opacity="0" offset="1"/>
  </linearGradient>
  <radialGradient id="c" cx="95.905" cy="-9.6332" r="10.866" gradientTransform="matrix(4.5526 .059153 -.082432 6.3443 -239 453.98)" gradientUnits="userSpaceOnUse">
   <stop stop-color="#ecf6c7" offset="0"/>
   <stop stop-color="#ecd5a3" offset="1"/>
  </radialGradient>
  <radialGradient id="b" cx="99.587" cy="-27.13" r="3.7604" gradientTransform="matrix(.66667 -.041667 .06108 .97726 34.853 3.1894)" gradientUnits="userSpaceOnUse">
   <stop stop-color="#e7edd0" offset="0"/>
   <stop stop-color="#e7cc95" offset="1"/>
  </radialGradient>
 </defs>
 <g transform="translate(1.4512e-6 -2.79)" fill-rule="evenodd">
  <path d="m78.621 158.59c-1.9723 69.55 23.693 128.81 62.064 173.34 34.781 40.369 83.78 71.778 164.67 72.006l-25.266 49.203-52.527 17.952-77.128-17.287-41.224-30.94-38.564-31.56-36.569-51.197-18.617-53.857-6.649-51.862 5.9841-40.559 34.575-31.915 29.256-3.3245z" fill="#eed8a6"/>
  <path d="m97.366 266.97c19.007 48.291 59.931 87.53 98.341 111.91 33.758 21.426 63.421 23.515 91.67 24.476l-72.651 45.707c-62.806-15.345-113.14-49.399-147.88-106.83l30.524-75.258z" fill="url(#c)"/>
  <path d="m126.43 97.265c-5.3623 0.09461-10.853 0.36275-16.539 0.82012-56.911 14.231-92.744 52.993-102.24 101.49-9.1388 46.666 1.4447 124.47 50.369 186.37 61.751 69.477 114.26 84.383 157.6 89.256 56.881 6.3956 102.32-17.848 129.93-60.739 33.444-85.015 21.392-169.09-56.805-250.57-36.89-30.236-81.881-68.054-162.32-66.635zm-31.985 76.271c30.895-0.12179 65.859 12.516 95.202 38.887 47.167 39.612 73.671 70.612 89.12 113.04 31.789 106.19-19.844 146.06-77.775 132.31-99.945-24.834-160.04-92.626-184.19-193.48-8.775-59.243 29.442-90.57 77.638-90.76z" fill="#e9d4a5"/>
  <path transform="matrix(7.7492 0 0 7.7492 -535.75 472.13)" d="m105.25-18.515c-2.0671-5.4123-5.8183-9.9492-9.7843-13.497-3.7332-3.3398-7.6102-5.8129-11.903-7.025-3.4653-0.97844-7.4355-0.20579-11.873 4.1913 1.6333-5.7594 6.5915-7.9124 12.738-7.0223l13.8 7.4306 7.3489 7.3489 3.1029 7.104 0.7349 1.0615-4.1644 0.40827z" fill="#d7bb89" filter="url(#al)"/>
  <path transform="matrix(7.7492 0 0 7.7492 -535.75 472.13)" d="m115.06-20.952c-4.2952-14.072-16.154-22.68-35.099-26.172 5.3743-1.744 11.219-1.18 16.229 0.82372 3.4413 1.3765 6.7488 3.6657 9.3423 5.8768 3.9589 3.3751 6.7664 7.2205 8.6798 12.149 0.72052 1.8559 1.3467 3.7998 1.6878 6.0253l-0.53412 1.3734-0.30521-0.0763z" fill="url(#r)" filter="url(#a)"/>
  <path transform="matrix(7.7492 0 0 7.7492 -535.75 472.13)" d="m114.46-24.058c-1.1828-7.27-8.12-17.772-19.166-22.316-5.4258-2.8369-16.169-0.03966-14.937 3.0594 3.9252 5.1931 11.224 5.1817 17.015 10.518 3.2959 3.0372 7.1994 9.6217 9.7998 13.868l1.5297 1.3497 6.8387-2.6995-1.0798-3.7793z" fill="url(#q)" filter="url(#ak)"/>
  <path transform="matrix(7.7492 0 0 7.7492 -535.75 472.13)" d="m87.823-45.561c4.5279 1.6682 8.9047 3.218 15.227 7.5772 2.5542 1.0835 4.1879 0.41504 1.9484-1.7319-4.4963-4.1075-9.556-7.0118-14.866-7.4328l-2.3092 1.5876z" fill="#f7e9cf" filter="url(#ao)"/>
  <path transform="matrix(7.7492 0 0 7.7492 -535.75 472.13)" d="m90.145-46.697c1.5308-0.5897 11.061 3.3234 12.322 5.4515-0.82681-0.10412-10.495-4.5823-12.322-5.4515z" fill="#fff" filter="url(#a)" opacity=".9"/>
  <path transform="matrix(7.7492 0 0 7.7492 -535.75 472.13)" d="m82.21-42.716c0.93511-0.2116 1.831 0.1515 3.6066 0.25004 5.4303 0.30136 12.408 4.5646 16.708 7.5647 4.4905 3.1331 7.728 6.6965 12.244 11.255l-0.07062 2.472-2.9663 1.2007c-2.9065-5.4884-3.6471-11.985-16.385-15.75-5.3206-2.1424-10.579-4.2971-13.137-6.9921z" fill="#c29868" filter="url(#an)" opacity=".9"/>
  <path transform="matrix(7.7492 0 0 7.7492 -535.75 472.13)" d="m95.912-38.479c-0.55347 1.6006-2.8377 0.89349-5.1558 0.14125 3.4162 2.5986 6.5827 2.8256 7.1903 3.2397 2.3259 0.2046 4.1603 2.2231 6.0876 3.3286 0.44062-0.00903 0.7707-0.07759-0.07063-0.7769-2.7771-2.2106-5.4747-4.2228-8.0515-5.9327z" fill="#5e4d33" filter="url(#am)" opacity=".6"/>
  <path transform="matrix(7.7492 0 0 7.7492 -535.75 472.13)" d="m114.71-21.485-5.0298-5.3747c1.2851 2.1503 2.6537 4.2171 4.0469 6.2593l0.98298-0.88468z" fill="#eac388" filter="url(#a)" opacity=".8"/>
  <path transform="matrix(7.7492 0 0 7.7492 -535.75 472.13)" d="m112.15-29.701c0.92314 2.3147 1.7928 4.6561 2.2863 7.1856-1.1884-2.6794-1.735-4.9309-2.2863-7.1856z" fill="#fce3b7" filter="url(#a)"/>
  <path transform="matrix(7.7492 0 0 7.7492 -535.75 472.13)" d="m120.77-28.721c-0.23877 1.1981-3.1397 5.3159-4.246 6.2058 0.58519-1.2846 3.1709-5.1081 4.246-6.2058z" fill="#ffe7e5" filter="url(#a)" opacity=".9"/>
  <path transform="matrix(7.7492 0 0 7.7492 -535.75 472.13)" d="m112.52-21.699c-1.038-0.99958-2.207-1.7374-3.3478-2.5313 1.0491 0.89388 1.9004 1.9362 3.3478 2.5313z" fill="#cdab7e" filter="url(#a)" opacity=".9"/>
  <path transform="matrix(7.7492 0 0 7.7492 -535.75 472.13)" d="m80.94465-42.6002c-.05452.25089.04329.84996.30329,1.81974 .22983.81172.30273.68185.40439.72452l-.70768-2.54426z" fill="#e3c899" filter="url(#a)" opacity=".9"/>
  <path transform="matrix(7.7492 0 0 7.7492 -535.75 472.13)" d="m79.59669-47.68873 .50548,2.67906c-.12491-.10406-.24908-.34995-.50548-2.20727v-.47178z" fill="#ead4ab" filter="url(#a)" opacity=".9"/>
  <path transform="matrix(7.7492 0 0 7.7492 -535.75 472.13)" d="m77.05243-45.32981c.73014.18842 1.46028.54531 2.19043.90987-.70017-.18341-1.40235-.37485-2.19043-.90987z" fill="#f0dfb4" filter="url(#a)" opacity=".9"/>
  <path transform="matrix(7.7492 0 0 7.7492 -535.75 472.13)" d="m77.21-38.051c-5.4867 2.1434-6.7917 7.2871-5.4694 14.348 3.3468 11.011 12.814 18.825 20.883 21.451l2.9833 0.49721c-1.5838-0.59654-3.7672-0.72669-3.7646-2.5571-6.1925-3.123-12.143-7.3625-17.829-18.965-2.4495-6.9435 0.34234-11.206 3.1964-14.774z" fill="#d9b583" filter="url(#aj)"/>
  <path transform="matrix(7.7492 0 0 7.7492 -535.75 472.13)" d="m72.005-24.338c1.1123 2.2606 2.0732 4.5212 3.6268 6.7818l-0.47178 0.50126c-1.7021-2.6144-2.5148-4.7571-3.155-7.283z" fill="url(#p)" filter="url(#a)"/>
  <path transform="matrix(7.7492 0 0 7.7492 -535.75 472.13)" d="m71.741-31.943 0.99443 0.07103c0.14122 1.8835-0.48162 2.6973-1.2786 3.2674 0.01947-1.1128 0.07684-2.2256 0.28412-3.3384z" fill="#a47e4f" filter="url(#ai)" opacity=".7"/>
  <path d="m134.44 414.29c36.171 22.582 72.688 43.668 117.89 27.096-3.2072 6.8047 1.3992 17.311-14.989 17.872-14.495 3.4812-27.292 2.8305-38.892 1.1822-43.118-6.1274-63.84-23.635-87.939-43.267l23.925-2.8825z" fill="url(#o)"/>
  <path transform="matrix(7.7492 0 0 7.7492 -535.75 472.13)" d="m75.221-17.95c0.3794-0.26159 1.2927 0.02926 2.2071 1.1264 1.7614 2.1134 3.8366 5.2307 5.4642 6.9 3.5039 3.1721 6.1651 4.4903 8.7368 5.6114 0.56228 0.58451 0.83372 1.0963 0.63928 1.4916 2.0644 0.23325 2.0133 0.73093 2.6992 1.1365-3.3245-0.80459-6.5949-2.28-12.075-5.9666-3.4488-3.0596-6.3533-6.4822-8.6657-10.299h0.99443z" fill="#b48251" filter="url(#a)"/>
  <path transform="matrix(7.7492 0 0 7.7492 -535.75 472.13)" d="m75.314-17.893c2.2909 3.1969 4.4393 6.0215 6.7302 8.653-1.9849-1.4173-4.1132-3.7757-6.9438-8.0121l0.21366-0.64097z" fill="url(#n)" filter="url(#a)"/>
  <path transform="matrix(7.7492 0 0 7.7492 -535.75 472.13)" d="m72.484-29.691c-0.27196 0.44901-0.61407 0.91635-0.67428 1.4076-0.36422 2.9713 1.6371 7.3815 3.3461 10.12l2.7864 1.6413c-2.9188-4.2324-5.3597-8.5331-5.4582-13.168z" fill="#f1ca85" filter="url(#a)"/>
  <path transform="matrix(7.7492 0 0 7.7492 -535.75 472.13)" d="m106.47-8.7793c-1.4918 5.5227-5.0787 8.5447-12.193 7.3567-4.129-1.1837-8.2284-2.3056-14.305-7.561 1.9313 2.6257 8.1041 7.33 15.395 9.1959 6.1064 1.5186 12.867-2.4911 14.781-9.1959l-3.6783 0.20435z" fill="#af9064" filter="url(#a)"/>
  <path transform="matrix(7.7492 0 0 7.7492 -535.75 472.13)" d="m80.342-26.644c-0.73986 3.7198-1.7889 7.1305-2.8864 10.493l-4.3125-7.3687c2.0563-2.14 6.3915-3.3646 7.1989-3.124z" fill="#d0b07f" filter="url(#ah)"/>
  <path transform="matrix(7.7492 0 0 7.7492 -535.75 472.13)" d="m77.999-27.086c-0.30261 3.0228-0.67588 6.0314-1.4262 8.9647 0 0-0.73652-0.88882-0.78101-1.0527-0.31439-1.1579 1.8877-8.95 2.2072-7.912z" fill="#dbbb88" filter="url(#ag)" opacity=".9"/>
  <path transform="matrix(7.7492 0 0 7.7492 -535.75 472.13)" d="m106.94-6.3579c-0.34528 0.84722-0.83447 1.0948-1.2928 1.8625-1.6275 2.7256-4.9033 4.3784-8.1665 4.3312-1.6942-0.0245-2.5946-0.28904-3.7555-0.23657 7.343 1.7358 11.314-0.79948 13.215-5.9571z" fill="#edd4ac" filter="url(#a)"/>
  <path transform="matrix(7.7492 0 0 7.7492 -535.75 472.13)" d="m110.34-9.7805c-5.5865 14-17.055 10.927-30.576 1.8973 4.6422 4.1012 9.8756 7.5268 17.222 8.5379 10.708 0.23116 15.236-4.5116 18.024-10.654l-4.6703 0.21892z" fill="#c4a577" filter="url(#af)"/>
  <path d="m205.72 226.66c-22.974 66.944-21.319 115.79 3.6892 145.45 28.445 33.735 80.326 43.19 156.94 20.751 76.057-33.029 135.72-78.277 184.62-134.38 48.702-55.873 88.246-151.59 47.288-213.48-69.799-86.766-248.06-5.5536-335.37 97.618 20.54 14.073 45.84 38.857 63.027 65.681 69.437-82.261 160.77-121.81 212.77-125 0.45294 42.442-26.277 85.64-57.695 119.89-37.077 40.42-77.453 80.69-142.3 106.7-10.098 3.8822-58.244 29.994-79.725 17.7-5.6854-3.2539 8.3776-30.906 6.3115-31.781-8.2836-18.907-54.482-67.87-59.561-69.147z" fill="#efd9a7"/>
  <path transform="matrix(7.7492 0 0 7.7492 -535.75 472.13)" d="m138.99-52.059c-3.0568-2.7024-5.7092-5.8526-14.95-1.7086-5.6673 2.4331-11.761 7.2828-18.111 13.583l-1.4523-1.2814c7.4879-7.7088 15.616-13.88 25.372-16.146 7.3336-0.51411 8.2598 2.5069 9.1408 5.5528z" fill="#d9b583" filter="url(#ae)"/>
  <path transform="matrix(7.7492 0 0 7.7492 -535.75 472.13)" d="m117.81-51.888c-1.0516 2.1788-4.4965 4.6717-8.465 7.5916-1.3848 1.0189-2.4729 2.4264-3.6658 3.7704l-1.1106-0.85428c4.3364-3.8122 8.6818-7.5882 13.241-10.508z" fill="#b0824e" filter="url(#a)"/>
  <path transform="matrix(7.7492 0 0 7.7492 -535.75 472.13)" d="m130.62-56.245c-4.6848 0.80266-9.8666 3.4694-15.462 7.6885l2.4774-3.4171c5.9726-3.4831 8.7969-4.3734 10.935-4.6985 1.0349-0.20907 1.6987-0.0471 2.0503 0.42714z" fill="#efc98a" filter="url(#a)"/>
  <path transform="matrix(7.7492 0 0 7.7492 -535.75 472.13)" d="m123.36-55.134c-1.8392 1.087-3.4683 1.7539-5.7237 3.6734l-0.51257-0.598c2.7884-1.9122 4.2709-2.1921 6.2362-3.0754z" fill="#b8935d" filter="url(#a)"/>
  <path transform="matrix(7.7492 0 0 7.7492 -535.75 472.13)" d="m117.63-51.717-8.1157 6.0654-0.93971 0.25628c2.9046-2.8318 5.8091-4.9694 8.7137-6.6634l0.34171 0.34171z" fill="#8c673b" filter="url(#a)"/>
  <path transform="matrix(7.7492 0 0 7.7492 -535.75 472.13)" d="m133.26771-57.27c-.162.39866.19943.79733-1.45228,1.19599-.39212-.19058-.39391-.28357-1.62313-.68342l.08543-.51257c1.61406-.1029 2.74019-.12448 2.98998,0z" fill="#a47e4f" filter="url(#ad)"/>
  <path transform="matrix(7.7492 0 0 7.7492 -535.75 472.13)" d="m124.55-54.793 1.794 6.7488-10.081-1.7086 5.2111-4.1005 3.0754-0.93971z" fill="#caa475" filter="url(#ac)"/>
  <path transform="matrix(7.7492 0 0 7.7492 -535.75 472.13)" d="m119.6-51.803 6.2362 0.51257 0.25628 1.6231-8.4574-1.0251 1.9648-1.1106z" fill="#d7b786" filter="url(#ab)"/>
  <path d="m270.57 147.49c74.27-66.062 153.79-123.37 259.5-137.03-41.843-2.7598-99.653 3.9409-168.08 49.8-32.051 21.482-63.44 47.698-98.709 82.599l7.282 4.634z" fill="url(#m)"/>
  <path d="m285.8 126.67-18.891 17.369 3.0428 3.2963 15.848-20.666z" fill="url(#l)"/>
  <path transform="matrix(7.7492 0 0 7.7492 -535.75 472.13)" d="m96.986-30.686c2.6455 2.5264 4.6629 5.2415 6.4867 8.1788l-0.68941 1.4101-6.9567-6.2986 0.03134-2.0055 0.62673-1.3475 0.15668-0.21936 0.3447 0.28203z" fill="url(#b)" filter="url(#z)"/>
  <path transform="matrix(7.7492 0 0 7.7492 -535.75 472.13)" d="m137.56-57.832c7.4206 2.9364 4.82 9.2132 3.1413 15.183 9.2365 9.2021-6.3775 21.443-12.303 26.177-4.2798 4.2418-24.762 12.574-31.969 4.1024-2.0827-2.4481-4.8869-7.529-0.71993-19.265l0.88383 1.0274-0.14432 2.3657c1.6862 3.4395 4.0897 5.4441 6.8195 6.7963-0.95265 0.53073-0.84769 2.1191-1.178 3.2722 11.813-1.9813 19.332-7.1596 25.5-12.978 8.6863-8.1946 15.91-19.339 9.9706-26.681z" fill="url(#k)" filter="url(#aa)"/>
  <path transform="matrix(7.7492 0 0 7.7492 -535.75 472.13)" d="m96.04-24.036c1.5595 3.2184 3.6703 4.4523 5.8913 5.2896l-0.12535 0.22562c-2.8775-0.09015-5.1045-1.4183-5.9163-5.44l0.15041-0.07521z" fill="url(#j)" filter="url(#a)"/>
  <path transform="matrix(7.7492 0 0 7.7492 -535.75 472.13)" d="m125.15-27.821c-5.3819 4.5449-11.094 8.8471-20.682 10.303 3.882 0.25644 7.8263-1.3793 11.399-3.2736 3.3166-1.7585 8.0395-5.1987 9.283-7.0298z" fill="#f8e9c2" filter="url(#a)"/>
  <path transform="matrix(7.7492 0 0 7.7492 -535.75 472.13)" d="m95.015-18.675c2.422 5.5994 10.129 7.2554 17.23 5.318l0.85087 1.9145c-5.0124 0.47841-15.171 1.9224-18.081-7.2324z" fill="#efce98" filter="url(#a)"/>
  <path transform="matrix(7.7492 0 0 7.7492 -535.75 472.13)" d="m144.86-50.228c-2.7395 0.8337-9.96 12.825-15.387 20.208-6.2503 4.8951-12.683 9.4247-19.499 13.189-0.93354 0.97725-2.8343 2.2004-1.3472 3.9708 2.7827 2.5678 8.7882 1.6183 13.14-0.30326 4.5728-2.019 9.1206-5.6589 13.662-9.6945 5.1691-5.6498 9.6493-11.664 11.629-19.003 0.6027-4.148-0.98129-8.8038-2.1981-8.367z" fill="url(#i)" filter="url(#v)" stroke="url(#h)" stroke-width=".08467"/>
  <path transform="matrix(7.7492 0 0 7.7492 -535.75 472.13)" d="m113.64-17.869 0.07521 0.40111c-1.0232 1.7279-2.169 3.3946-3.4596 4.9888h-0.22562v-0.30083c1.09-1.8475 2.3202-3.5079 3.61-5.089z" fill="#ffe7b8" filter="url(#a)"/>
  <path transform="matrix(7.7492 0 0 7.7492 -535.75 472.13)" d="m142.88-47.818c-0.92705 7.1506-5.9357 15.234-13.472 23.895-4.2071 4.1598-8.4142 7.9113-12.621 12.48-2.4785 0.19158-4.9534 0.37724-6.8779-0.35453 4.7443-2.2242 9.6784-5.7767 14.607-9.2887 5.095-4.7987 7.6973-9.7635 9.9978-14.749 2.8866-4.4827 5.8416-9.3068 8.367-11.983z" fill="#c29868" filter="url(#u)"/>
  <path transform="matrix(7.7492 0 0 7.7492 -535.75 472.13)" d="m115.82-17.368 0.25069 0.07521 2.2061 7.5208-0.15042 0.17548c-0.94202-2.5905-1.6256-5.181-2.3064-7.7714z" fill="#ffe7b8" filter="url(#a)"/>
  <path transform="matrix(7.7492 0 0 7.7492 -535.75 472.13)" d="m117.67-18.32 0.3259 0.02507 1.103 0.77715 0.05014 0.20055c-0.56083-0.19864-1.0519-0.53673-1.4791-1.0028z" fill="#ffe7b9" filter="url(#x)"/>
  <path transform="matrix(7.7492 0 0 7.7492 -535.75 472.13)" d="m117.8-20.978 3.61-0.95263-0.05014 0.17549-3.5348 1.078-0.02507-0.30083z" fill="#ffe7b9" filter="url(#w)"/>
  <path transform="matrix(7.7492 0 0 7.7492 -535.75 472.13)" d="m120.96-28.649c-1.0938 1.8177-2.3363 3.9037-3.7353 5.7158l-0.30083-0.02507 0.05014-0.17549c1.3201-2.1611 2.963-4.3229 3.986-5.5152z" fill="#ffe8e6" filter="url(#a)"/>
  <path d="m204.93 253.78c-3.0723 29.882 2.1611 57.76 41.21 77.475l-10.44 0.54947c-42.72-25.612-35.624-64.929-30.77-78.024z" fill="url(#g)"/>
  <path transform="matrix(7.7492 0 0 7.7492 -535.75 472.13)" d="m145.78-44.343c-3.2949 6.414-6.9458 12.777-11.558 19.003-1.9228 3.5999-1.1127 3.6861 0.92178 2.1981 7.4199-7.9525 10.762-14.114 11.274-18.365l-0.63815-2.8363z" fill="url(#f)" filter="url(#a)"/>
  <path transform="matrix(7.7492 0 0 7.7492 -535.75 472.13)" d="m145.93-40.372c-2.4204 4.5742-5.0264 9.0866-8.0124 13.472 3.8008-3.8128 6.0852-8.5353 8.0124-13.472z" fill="#ffffea" filter="url(#a)"/>
  <path transform="matrix(7.7492 0 0 7.7492 -535.75 472.13)" d="m135.43-36.544 0.14181 0.85088-0.49634 1.3472c0.20789 1.0877 0.60022 1.2533 0.99268 1.4181l-5.8852 7.6579-1.0636-0.92178c1.4796-1.7443 2.6092-3.3136 3.3326-4.6798l0.63816-2.1272c0.77997-1.864 1.5599-2.571 2.3399-3.5453z" fill="url(#e)" filter="url(#t)"/>
  <path transform="matrix(7.7492 0 0 7.7492 -535.75 472.13)" d="m114.3-11.23 7.4452-6.4525c-3.313 2.0318-6.0063 3.2889-9.9978 6.1688 1.1134 0.35703 1.8011 0.28844 2.5526 0.28363z" fill="url(#d)" filter="url(#s)"/>
  <path transform="matrix(7.7492 0 0 7.7492 -535.75 472.13)" d="m114.94222-20.47617c-.42706.22342-.87885.38502-1.17826.92756 .01184.56359.45368.55385.85236.60166 .94592-.2574 1.61592-.79071 2.23115-1.3788 .23423-.52146.05818-.79045-.57659-.77715l-1.32866.62673z" fill="#fffeee" filter="url(#y)"/>
 </g>
</svg>
